<?xml version="1.0" encoding="utf-8"?>
<!-- Generator: Adobe Illustrator 23.1.1, SVG Export Plug-In . SVG Version: 6.00 Build 0)  -->
<svg version="1.1" id="Logotype" xmlns="http://www.w3.org/2000/svg" xmlns:xlink="http://www.w3.org/1999/xlink" x="0px" y="0px"
	 viewBox="0 0 652 180" style="enable-background:new 0 0 652 180;" xml:space="preserve">
<style type="text/css">
	.st0{fill:#FFFFFF;}
	.st1{fill:#FF380C;}
	.st2{fill:#00359B;}
	.st3{fill:#FFFFFF;}
</style>
<g>
	<circle class="st0" cx="90" cy="90" r="90"/>
	<path class="st1" d="M102.2,13l43,132.2C159.3,131,168,111.5,168,90C168,51.1,139.5,18.8,102.2,13L102.2,13z"/>
	<polygon class="st2" points="106.8,102.2 90,50.5 73.2,102.2 	"/>
	<path class="st1" d="M114.3,125.4H65.7l-11.1,34.1c10.6,5.4,22.7,8.5,35.4,8.5s24.8-3.1,35.4-8.5L114.3,125.4z"/>
	<path class="st1" d="M77.8,13L77.8,13C40.5,18.8,12,51.1,12,90c0,21.5,8.7,41,22.8,55.2L77.8,13z"/>
	<g>
		<path class="st3" d="M255,72.8c-0.3,0.5-0.6,0.9-1,1.1s-0.8,0.4-1.3,0.4s-1.1-0.2-1.7-0.6c-0.6-0.4-1.3-0.8-2.2-1.3
			s-1.8-0.9-3-1.3c-1.1-0.4-2.5-0.6-4-0.6c-1.4,0-2.6,0.2-3.7,0.5s-1.9,0.8-2.6,1.4c-0.7,0.6-1.2,1.3-1.6,2.1
			c-0.3,0.8-0.5,1.7-0.5,2.7c0,1.3,0.4,2.3,1.1,3.2c0.7,0.8,1.6,1.6,2.8,2.2s2.5,1.1,4,1.6s3,1,4.6,1.5s3.1,1.2,4.6,1.9
			s2.8,1.6,4,2.7s2.1,2.4,2.8,4s1.1,3.5,1.1,5.7c0,2.4-0.4,4.7-1.3,6.9c-0.8,2.1-2.1,4-3.7,5.6c-1.6,1.6-3.6,2.8-5.9,3.7
			c-2.3,0.9-5,1.4-8,1.4c-1.7,0-3.4-0.2-5.1-0.5c-1.7-0.3-3.3-0.8-4.8-1.4s-3-1.4-4.3-2.2c-1.3-0.9-2.5-1.8-3.6-2.9l2.9-4.8
			c0.2-0.3,0.6-0.6,1-0.9s0.8-0.4,1.3-0.4c0.6,0,1.3,0.3,2,0.8s1.6,1.1,2.6,1.7s2.2,1.2,3.5,1.7s2.9,0.8,4.8,0.8
			c2.9,0,5.1-0.7,6.6-2c1.6-1.4,2.4-3.3,2.4-5.8c0-1.4-0.4-2.6-1.1-3.5c-0.7-0.9-1.6-1.6-2.8-2.3c-1.2-0.6-2.5-1.1-4-1.6
			c-1.5-0.4-3-0.9-4.6-1.4c-1.5-0.5-3.1-1.1-4.6-1.8s-2.8-1.6-4-2.7s-2.1-2.5-2.8-4.2s-1.1-3.8-1.1-6.2c0-2,0.4-3.9,1.2-5.8
			s1.9-3.5,3.4-5c1.5-1.4,3.3-2.6,5.5-3.5s4.7-1.3,7.5-1.3c3.2,0,6.1,0.5,8.8,1.5c2.7,1,5,2.4,6.9,4.2L255,72.8z"/>
		<path class="st3" d="M266.6,117V61.5h9.2v21.3c1.5-1.4,3.1-2.6,4.9-3.4c1.8-0.9,3.9-1.3,6.3-1.3c2.1,0,3.9,0.4,5.6,1.1
			c1.6,0.7,3,1.7,4.1,3s1.9,2.8,2.5,4.6c0.6,1.8,0.8,3.7,0.8,5.9V117h-9.2V92.6c0-2.3-0.5-4.2-1.6-5.4c-1.1-1.3-2.7-1.9-4.9-1.9
			c-1.6,0-3.1,0.4-4.5,1.1s-2.7,1.7-4,2.9V117H266.6z"/>
		<path class="st3" d="M334.5,117c-0.9,0-1.5-0.1-2-0.4s-0.8-0.8-1.1-1.6l-0.8-2.7c-1,0.9-1.9,1.6-2.8,2.3c-0.9,0.7-1.9,1.2-2.9,1.7
			c-1,0.4-2.1,0.8-3.2,1s-2.4,0.3-3.8,0.3c-1.6,0-3.1-0.2-4.5-0.7s-2.6-1.1-3.5-2s-1.8-2-2.3-3.2c-0.5-1.3-0.8-2.8-0.8-4.5
			c0-1.4,0.4-2.9,1.1-4.3s2-2.7,3.8-3.8c1.8-1.1,4.1-2.1,7.1-2.8c2.9-0.7,6.6-1.2,11-1.3v-2.2c0-2.6-0.5-4.5-1.6-5.7
			s-2.7-1.8-4.7-1.8c-1.5,0-2.7,0.2-3.7,0.5s-1.8,0.7-2.6,1.2c-0.7,0.4-1.4,0.8-2,1.2c-0.6,0.3-1.3,0.5-2,0.5
			c-0.6,0-1.2-0.2-1.6-0.5s-0.8-0.7-1.1-1.2l-1.6-2.9c4.4-4,9.7-6.1,15.9-6.1c2.2,0,4.2,0.4,6,1.1s3.3,1.8,4.5,3.1
			c1.2,1.3,2.1,2.9,2.8,4.7c0.6,1.8,1,3.8,1,6V117H334.5L334.5,117z M320.8,111.2c1.9,0,3.5-0.3,4.9-1s2.7-1.7,4.1-3.1v-6.5
			c-2.7,0.1-4.9,0.4-6.7,0.7c-1.8,0.3-3.3,0.8-4.4,1.3s-1.9,1.1-2.4,1.8s-0.7,1.5-0.7,2.3c0,1.6,0.5,2.8,1.4,3.5
			C318,110.9,319.2,111.2,320.8,111.2z"/>
		<path class="st3" d="M348.1,117V78.7h5.4c0.9,0,1.6,0.2,2,0.5s0.6,0.9,0.7,1.8l0.5,4.3c1.2-2.3,2.7-4.1,4.3-5.4s3.6-2,5.8-2
			c1.8,0,3.2,0.4,4.3,1.2l-0.6,6.9c-0.1,0.4-0.3,0.8-0.5,1s-0.6,0.3-1,0.3s-0.9-0.1-1.7-0.2c-0.7-0.1-1.5-0.2-2.1-0.2
			c-1,0-1.9,0.2-2.7,0.4c-0.8,0.3-1.5,0.7-2.1,1.3c-0.6,0.6-1.2,1.2-1.7,2s-0.9,1.7-1.4,2.7V117H348.1L348.1,117z"/>
		<path class="st3" d="M392,78.1c2.4,0,4.6,0.4,6.7,1.2c2,0.8,3.8,1.9,5.3,3.4s2.6,3.3,3.5,5.5c0.8,2.2,1.3,4.6,1.3,7.4
			c0,1.4-0.1,2.3-0.4,2.8s-0.9,0.7-1.7,0.7H383c0.1,2,0.5,3.7,1,5.1s1.3,2.6,2.2,3.5c0.9,0.9,2,1.6,3.2,2.1s2.6,0.7,4.1,0.7
			s2.8-0.2,3.9-0.5s2-0.7,2.8-1.2c0.8-0.4,1.5-0.8,2.1-1.2c0.6-0.3,1.2-0.5,1.8-0.5c0.8,0,1.3,0.3,1.7,0.9l2.7,3.4
			c-1,1.2-2.2,2.2-3.4,3c-1.3,0.8-2.6,1.5-4,1.9c-1.4,0.5-2.8,0.8-4.2,1c-1.4,0.2-2.8,0.3-4.2,0.3c-2.7,0-5.1-0.4-7.4-1.3
			s-4.3-2.2-6-3.9c-1.7-1.7-3-3.9-4-6.4c-1-2.6-1.5-5.5-1.5-8.9c0-2.6,0.4-5.1,1.3-7.4c0.8-2.3,2.1-4.3,3.6-6
			c1.6-1.7,3.5-3.1,5.8-4.1C386.5,78.6,389.1,78.1,392,78.1z M392.1,84.7c-2.7,0-4.8,0.8-6.3,2.3s-2.5,3.7-2.9,6.5h17.4
			c0-1.2-0.2-2.3-0.5-3.4s-0.8-2-1.5-2.8s-1.5-1.4-2.6-1.9C394.7,84.9,393.5,84.7,392.1,84.7z"/>
		<path class="st3" d="M463.3,117h-7.8c-0.9,0-1.6-0.2-2.1-0.7c-0.5-0.4-1-1-1.2-1.6l-4-11h-22.4l-4,11c-0.2,0.6-0.6,1.1-1.2,1.6
			s-1.3,0.7-2.1,0.7h-7.8l21.2-54h10.2L463.3,117z M428.4,96.6h17.2l-6.6-18c-0.3-0.8-0.7-1.7-1-2.8c-0.3-1.1-0.7-2.3-1-3.5
			c-0.3,1.3-0.7,2.5-1,3.5c-0.3,1.1-0.7,2.1-1,2.9L428.4,96.6z"/>
		<path class="st3" d="M491.7,86.2c-0.2,0.4-0.5,0.7-0.8,0.8c-0.3,0.2-0.6,0.2-1,0.2s-0.9-0.1-1.4-0.4c-0.5-0.2-1.1-0.5-1.8-0.8
			s-1.4-0.6-2.3-0.8c-0.9-0.2-1.9-0.4-3-0.4c-1.8,0-3.2,0.4-4.3,1.2c-1,0.8-1.5,1.8-1.5,3c0,0.8,0.3,1.5,0.8,2.1s1.2,1.1,2.1,1.5
			s1.9,0.8,3,1.1s2.3,0.7,3.4,1.1c1.2,0.4,2.3,0.9,3.4,1.4s2.1,1.2,3,1.9c0.9,0.8,1.6,1.7,2.1,2.8c0.5,1.1,0.8,2.4,0.8,4
			c0,1.8-0.3,3.5-1,5.1s-1.6,2.9-2.9,4s-2.9,2-4.8,2.7c-1.9,0.6-4.1,1-6.6,1c-1.3,0-2.6-0.1-3.9-0.4c-1.3-0.2-2.5-0.6-3.6-1
			c-1.2-0.4-2.2-0.9-3.2-1.5s-1.8-1.2-2.6-1.9l2.1-3.5c0.3-0.4,0.6-0.7,1-1c0.4-0.2,0.8-0.3,1.4-0.3s1.1,0.2,1.6,0.5s1.1,0.7,1.8,1
			s1.5,0.7,2.4,1s2.1,0.5,3.5,0.5c1.1,0,2-0.1,2.8-0.4s1.4-0.6,1.9-1s0.9-0.9,1.1-1.5s0.4-1.1,0.4-1.7c0-0.9-0.3-1.6-0.8-2.2
			s-1.2-1.1-2.1-1.5s-1.9-0.8-3-1.1c-1.1-0.3-2.3-0.7-3.5-1.1s-2.3-0.9-3.5-1.4c-1.1-0.5-2.1-1.2-3-2s-1.6-1.8-2.1-3
			s-0.8-2.6-0.8-4.3c0-1.6,0.3-3.1,0.9-4.5s1.5-2.7,2.7-3.7c1.2-1.1,2.7-1.9,4.5-2.5s3.9-1,6.3-1c2.6,0,5,0.4,7.2,1.3s4,2,5.4,3.4
			L491.7,86.2z"/>
		<path class="st3" d="M501.9,129.5V78.7h5.6c1.2,0,2,0.6,2.4,1.7l0.7,3.5c1.5-1.8,3.3-3.2,5.3-4.3c2-1.1,4.3-1.6,7-1.6
			c2.1,0,4,0.4,5.7,1.3s3.2,2.1,4.5,3.8c1.3,1.7,2.2,3.7,2.9,6.1s1,5.2,1,8.3c0,2.9-0.4,5.5-1.2,8c-0.8,2.4-1.9,4.6-3.3,6.3
			c-1.4,1.8-3.2,3.2-5.2,4.2s-4.3,1.5-6.8,1.5c-2.2,0-4-0.3-5.5-1s-2.9-1.6-4.1-2.7v15.7H501.9z M519.9,85.3c-1.9,0-3.6,0.4-4.9,1.2
			c-1.4,0.8-2.6,1.9-3.8,3.4v17.2c1,1.3,2.2,2.2,3.4,2.7s2.6,0.8,4,0.8s2.7-0.3,3.8-0.8s2.1-1.3,2.9-2.4c0.8-1.1,1.4-2.4,1.8-4.1
			c0.4-1.6,0.6-3.6,0.6-5.8c0-2.2-0.2-4.1-0.5-5.7c-0.4-1.6-0.9-2.8-1.5-3.8s-1.5-1.7-2.4-2.1C522.2,85.5,521.1,85.3,519.9,85.3z"/>
		<path class="st3" d="M570.2,117c-0.9,0-1.5-0.1-2-0.4s-0.8-0.8-1.1-1.6l-0.8-2.7c-1,0.9-1.9,1.6-2.8,2.3c-0.9,0.7-1.9,1.2-2.9,1.7
			c-1,0.4-2.1,0.8-3.2,1c-1.1,0.2-2.4,0.3-3.8,0.3c-1.6,0-3.1-0.2-4.5-0.7c-1.4-0.4-2.6-1.1-3.5-2s-1.8-2-2.3-3.2
			c-0.5-1.3-0.8-2.8-0.8-4.5c0-1.4,0.4-2.9,1.1-4.3c0.8-1.4,2-2.7,3.8-3.8c1.8-1.1,4.1-2.1,7.1-2.8s6.6-1.2,11-1.3v-2.2
			c0-2.6-0.5-4.5-1.6-5.7s-2.7-1.8-4.7-1.8c-1.5,0-2.7,0.2-3.7,0.5s-1.8,0.7-2.6,1.2c-0.7,0.4-1.4,0.8-2,1.2s-1.3,0.5-2,0.5
			c-0.6,0-1.2-0.2-1.6-0.5c-0.4-0.3-0.8-0.7-1.1-1.2l-1.6-2.9c4.4-4,9.7-6.1,15.9-6.1c2.2,0,4.2,0.4,6,1.1s3.3,1.8,4.5,3.1
			c1.2,1.3,2.1,2.9,2.8,4.7c0.6,1.8,1,3.8,1,6V117H570.2L570.2,117z M556.4,111.2c1.9,0,3.5-0.3,4.9-1s2.7-1.7,4.1-3.1v-6.5
			c-2.7,0.1-4.9,0.4-6.7,0.7c-1.8,0.3-3.3,0.8-4.3,1.3c-1.1,0.5-1.9,1.1-2.4,1.8c-0.5,0.7-0.7,1.5-0.7,2.3c0,1.6,0.5,2.8,1.4,3.5
			C553.6,110.9,554.8,111.2,556.4,111.2z"/>
		<path class="st3" d="M611.2,86.8c-0.3,0.3-0.5,0.6-0.8,0.8c-0.3,0.2-0.6,0.3-1.1,0.3s-0.9-0.1-1.4-0.4c-0.4-0.3-1-0.6-1.6-1
			s-1.4-0.7-2.2-1c-0.9-0.3-1.9-0.4-3.2-0.4c-1.6,0-3,0.3-4.3,0.9c-1.2,0.6-2.2,1.4-3,2.5s-1.4,2.4-1.8,4c-0.4,1.6-0.6,3.3-0.6,5.3
			s0.2,3.9,0.7,5.5c0.4,1.6,1.1,2.9,1.9,4c0.8,1.1,1.8,1.9,3,2.5s2.5,0.8,4,0.8s2.7-0.2,3.6-0.5c0.9-0.4,1.7-0.8,2.3-1.2
			s1.2-0.8,1.6-1.2c0.5-0.4,1-0.5,1.5-0.5c0.7,0,1.3,0.3,1.7,0.9l2.7,3.4c-1,1.2-2.1,2.2-3.3,3s-2.4,1.5-3.7,1.9
			c-1.3,0.5-2.6,0.8-4,1s-2.7,0.3-4.1,0.3c-2.4,0-4.6-0.4-6.7-1.3c-2.1-0.9-3.9-2.2-5.5-3.9c-1.6-1.7-2.8-3.8-3.7-6.2
			s-1.4-5.2-1.4-8.4c0-2.8,0.4-5.4,1.2-7.8s2-4.5,3.6-6.2s3.5-3.1,5.8-4.1s5-1.5,8-1.5c2.9,0,5.4,0.5,7.5,1.4c2.2,0.9,4.1,2.2,5.8,4
			L611.2,86.8z"/>
		<path class="st3" d="M635.3,78.1c2.4,0,4.6,0.4,6.7,1.2c2,0.8,3.8,1.9,5.3,3.4s2.6,3.3,3.5,5.5c0.8,2.2,1.3,4.6,1.3,7.4
			c0,1.4-0.1,2.3-0.4,2.8c-0.3,0.5-0.9,0.7-1.7,0.7h-23.7c0.2,2,0.5,3.7,1,5.1s1.3,2.6,2.2,3.5s2,1.6,3.2,2.1s2.6,0.7,4.1,0.7
			s2.8-0.2,3.9-0.5c1.1-0.3,2-0.7,2.8-1.2c0.8-0.4,1.5-0.8,2.1-1.2c0.6-0.3,1.2-0.5,1.8-0.5c0.8,0,1.3,0.3,1.7,0.9l2.7,3.4
			c-1,1.2-2.2,2.2-3.4,3c-1.3,0.8-2.6,1.5-4,1.9c-1.4,0.5-2.8,0.8-4.2,1s-2.8,0.3-4.2,0.3c-2.7,0-5.1-0.4-7.4-1.3
			c-2.3-0.9-4.3-2.2-6-3.9c-1.7-1.7-3-3.9-4-6.4c-1-2.6-1.5-5.5-1.5-8.9c0-2.6,0.4-5.1,1.3-7.4c0.8-2.3,2.1-4.3,3.6-6
			s3.5-3.1,5.8-4.1C629.9,78.6,632.5,78.1,635.3,78.1z M635.5,84.7c-2.7,0-4.8,0.8-6.3,2.3s-2.5,3.7-2.9,6.5h17.4
			c0-1.2-0.2-2.3-0.5-3.4s-0.8-2-1.5-2.8s-1.5-1.4-2.6-1.9S636.9,84.7,635.5,84.7z"/>
	</g>
</g>
</svg>